<?xml version="1.0" encoding="utf-8"?>
<!-- Generator: Adobe Illustrator 16.0.4, SVG Export Plug-In . SVG Version: 6.00 Build 0)  -->
<!DOCTYPE svg PUBLIC "-//W3C//DTD SVG 1.1//EN" "http://www.w3.org/Graphics/SVG/1.1/DTD/svg11.dtd">
<svg version="1.1" id="Layer_1" xmlns="http://www.w3.org/2000/svg" xmlns:xlink="http://www.w3.org/1999/xlink" x="0px" y="0px"
	 width="173.58px" height="173.582px" viewBox="0 0 173.58 173.582" enable-background="new 0 0 173.58 173.582"
	 xml:space="preserve">
<g>
	<circle fill="#FBB03B" cx="86.79" cy="86.791" r="86.79"/>
	<g>
		<path fill="#FEFEFE" d="M89.109,94.348H73.971V76.263c0-0.573-0.465-1.035-1.036-1.035H62.261c-0.568,0-1.035,0.461-1.035,1.035
			v18.084H46.089c-2.199,0-3.982-1.781-3.982-3.983V76.119l25.49-22.172l25.492,21.967v14.451
			C93.089,92.566,91.31,94.348,89.109,94.348z M94.265,71.58c0.769,0.666,1.947,0.604,2.636-0.141l2.078-2.245
			c0.693-0.742,0.636-1.887-0.142-2.552l-9.332-8.092l-2.814-2.44h0.024V45.252c0-1.043-0.843-1.885-1.883-1.885h-2.603
			c-1.043,0-1.887,0.842-1.887,1.885v5.357l-11.504-9.969c-0.703-0.616-1.775-0.616-2.488,0L36.355,66.642
			c-0.765,0.666-0.833,1.811-0.144,2.552l2.083,2.245c0.69,0.745,1.864,0.806,2.631,0.141l26.669-23.116L94.265,71.58z
			 M70.954,102.307c-0.289-2.152-0.442-4.343-0.487-6.553c-0.018-0.777-0.653-1.406-1.435-1.406h-3.187
			c-0.387,0-0.757,0.155-1.028,0.437c-0.268,0.271-0.417,0.644-0.407,1.025c0.048,2.465,0.219,4.939,0.557,7.424
			c0.054,0.388,0.263,0.734,0.573,0.965c0.318,0.231,0.71,0.323,1.093,0.253l3.148-0.545
			C70.542,103.777,71.061,103.066,70.954,102.307z M75.373,115.026c-1.024-1.73-1.859-3.602-2.509-5.577
			c-0.241-0.727-1.016-1.136-1.753-0.925l-3.379,0.958c-0.373,0.107-0.69,0.361-0.872,0.704c-0.184,0.346-0.218,0.746-0.1,1.119
			c0.808,2.47,1.87,4.897,3.255,7.183c0.206,0.335,0.542,0.571,0.929,0.659c0.382,0.08,0.782,0,1.11-0.22l2.9-1.985
			C75.579,116.515,75.764,115.673,75.373,115.026z M84.857,123.484c-1.817-0.839-3.51-1.88-5.002-3.148
			c-0.579-0.487-1.436-0.447-1.961,0.099l-2.444,2.527c-0.272,0.279-0.419,0.667-0.399,1.058c0.017,0.397,0.199,0.765,0.494,1.021
			c2.056,1.781,4.393,3.211,6.831,4.318c0.359,0.163,0.768,0.174,1.132,0.027c0.363-0.151,0.652-0.437,0.796-0.805l1.289-3.272
			C85.866,124.599,85.546,123.802,84.857,123.484z M98.07,126.528c-2.165-0.063-4.305-0.256-6.387-0.637
			c-0.753-0.136-1.475,0.337-1.648,1.083l-0.735,3.113c-0.091,0.377-0.017,0.784,0.193,1.112c0.219,0.331,0.558,0.555,0.943,0.622
			c2.519,0.468,5.043,0.691,7.553,0.762c0.386,0.008,0.759-0.139,1.039-0.405c0.272-0.275,0.432-0.64,0.432-1.027v-3.189
			C99.46,127.181,98.841,126.545,98.07,126.528z M135.782,94.813l-7.412-3.364l-4.551-7.687c-0.844-1.343-2.322-2.161-3.921-2.161
			h-4.89c-1.381,0-2.691,0.624-3.573,1.693l-7.444,7.479c-0.382,0.494-0.613,1.078-0.65,1.701l-0.688,8.171
			c-0.108,1.687,1.172,3.143,2.857,3.256c0.069,0,0.14,0.005,0.207,0.005c1.606,0,2.957-1.245,3.057-2.86l0.625-7.221l2.805-2.553
			v12.51l-1.144,12.158l-4.968,11.633c-0.749,1.88,0.175,4.008,2.059,4.755c0.441,0.174,0.896,0.256,1.348,0.256
			c1.459,0,2.841-0.878,3.407-2.321l5.172-12.137c0.136-0.335,0.215-0.69,0.242-1.05l0.509-5.585l3.692,4.663l1.536,13.46
			c0.347,1.748,1.88,2.962,3.599,2.962c0.229,0,0.466-0.023,0.71-0.067c1.987-0.393,3.276-2.321,2.885-4.308l-1.698-14.277
			c-0.104-0.533-0.324-1.037-0.652-1.475l-5.539-7.286V94.572l0.61,0.963c0.335,0.547,0.847,0.971,1.438,1.212l8.065,3.75
			c0.379,0.148,0.771,0.216,1.159,0.216c1.208,0,2.351-0.715,2.838-1.91C138.106,97.241,137.349,95.449,135.782,94.813z
			 M118.579,78.416c3.518,0,6.37-2.858,6.37-6.374c0-3.523-2.853-6.374-6.37-6.374c-3.519,0-6.375,2.851-6.375,6.374
			C112.204,75.558,115.061,78.416,118.579,78.416z"/>
	</g>
</g>
</svg>
