<?xml version="1.0" encoding="utf-8"?>
<!-- Generator: Adobe Illustrator 16.0.0, SVG Export Plug-In . SVG Version: 6.00 Build 0)  -->
<!DOCTYPE svg PUBLIC "-//W3C//DTD SVG 1.1//EN" "http://www.w3.org/Graphics/SVG/1.1/DTD/svg11.dtd">
<svg version="1.1" id="Layer_2" xmlns="http://www.w3.org/2000/svg" xmlns:xlink="http://www.w3.org/1999/xlink" x="0px" y="0px"
	 width="72px" height="72px" viewBox="0 0 72 72" enable-background="new 0 0 72 72" xml:space="preserve">
<g>
	<path fill="#FFFFFF" d="M26.39,67.794c-0.545,1.947,0,4.75-8.125,3.344s-7.25-4.469-6.5-7.844c0.475-2.136,1.028-3.653,1.125-4.625
		c0.125-1.25,1.158-2.38-0.75-4.5c-4.125-3.75-3.375-13.125-1.875-17c0.771-1.992,0-2-1.5-3.5s-4.405-5.278-3.625-10.5
		c0.812-5.438,6.896-6.277,9.125-4c2.938,3,1.996,5.529,1.362,6.793c-0.487,0.971-1.352,2.582-3.425,3.52
		c-0.756-0.95-1.75-1.938-1.938-3.25c1.125-0.562,1.633-1.193,1.75-1.875c0.375-2.188-1.574-2.126-2.449-0.814
		c-1.333,2,0.949,5.751,2.574,7.501s3.25-1.25,3.25-1.25c10.5-9,23.625-9.25,33.125-4.125c2.562,1.562,1.571,1.734,1.473,4.887
		c-0.048,1.514,0.527,2.425,3.027,3.863c-4-12.125,8.132-11.919,10.375-11.75c3.312,0.25,3,1.75,1.75,3.25s-3,3.875-4.25,5.375
		s-1.25,2.625,0.125,4.25s3.875,4,7.5,4.75s3.875,1.312,3.12,6.688c-0.778,5.543-1.433,5.188-5.12,5.688
		c-2.12,0.287-5.125,2.008-7.375,3.633s-3,1.367-1.5,6.867c1.141,4.184,0.688,6.75-6,7.75c-6.28,0.939-8.188-0.125-9.375-6.25
		c-2.938,1.562-10.688,2.062-15,0C27.265,64.669,27.265,64.669,26.39,67.794z M55.109,39.044c-1.329,0-2.406,1.077-2.406,2.406
		s1.077,2.406,2.406,2.406s2.406-1.077,2.406-2.406S56.438,39.044,55.109,39.044z"/>
	<path fill="#FFFFFF" d="M45.721,21.012c-1.81-0.709-4.179-1.453-6.143-1.781c0,0,0.938-0.375,1.062-2.812
		c0.125-2-1.579-2.856-3.642-3.731c-1.553-0.701-3.146-0.97-2.77-2.383c0.286-1.073,1.661-1.073,4.474-0.198
		c0.399-0.987,0.593-1.514,0.81-2.407c-1.246-0.563-1.859-0.968-3.297-0.968c0-1.875,0,0.062,0-1.812c-2.263-0.062,0,0.062-2.263,0
		c0,0,0,0,0,1.812c-0.858,0.39-1.541,0.595-2.104,0.868c-1.958,0.945-3.771,5.257,1.042,7.195c2.261,1.054,3.688,0.875,3.343,2.702
		c-0.172,0.91-1.297,0.769-2.21,0.769c-1.194,0-1.908-0.282-3.446-0.971c-0.137,0.515-0.508,1.598-0.657,2.11
		c-2.054,0.342-4.075,0.902-6.096,1.725c-1.449-2.118-2.239-4.701-2.239-7.46c0-7.283,5.904-13.188,13.188-13.188
		c7.284,0,13.188,5.904,13.188,13.188C47.961,16.4,47.143,18.907,45.721,21.012"/>
	<path fill="#FFFFFF" d="M6.203,31.731c-2.625,0-4.58-1.031-5.25-1.938c-1.062-1.438-1.14-3.438-0.625-4.625
		c0.938-2.164,1.917-1.465,1.75-0.188c-0.188,1.438,0.375,2.5,2.25,2.773C4.453,29.317,6.203,31.731,6.203,31.731z"/>
</g>
</svg>
