<?xml version="1.0" encoding="utf-8"?>
<!-- Generator: Adobe Illustrator 16.0.4, SVG Export Plug-In . SVG Version: 6.00 Build 0)  -->
<!DOCTYPE svg PUBLIC "-//W3C//DTD SVG 1.1//EN" "http://www.w3.org/Graphics/SVG/1.1/DTD/svg11.dtd">
<svg version="1.1" id="Layer_1" xmlns="http://www.w3.org/2000/svg" xmlns:xlink="http://www.w3.org/1999/xlink" x="0px" y="0px"
	 width="173.58px" height="173.582px" viewBox="0 0 173.58 173.582" enable-background="new 0 0 173.58 173.582"
	 xml:space="preserve">
<g>
	<circle fill="#F3756F" cx="86.789" cy="86.791" r="86.791"/>
	<path fill="#D6D7D9" d="M140.23,47.428H33.349c-2.119,0-3.827,1.708-3.827,3.827v71.073c0,2.118,1.708,3.826,3.827,3.826H140.23
		c2.119,0,3.826-1.708,3.826-3.826V51.255C144.057,49.136,142.35,47.428,140.23,47.428z"/>
	<rect x="135.789" y="49.684" fill="#E65336" width="4.92" height="2.665"/>
	<rect x="130.596" y="49.684" fill="#2C424F" width="4.92" height="2.665"/>
	<rect x="125.332" y="49.684" fill="#2E4555" width="4.922" height="2.665"/>
	<path fill="#FFFFFF" d="M138.523,51.801l-0.137-0.273c-0.07-0.136-0.07-0.205-0.139-0.273l0,0c0,0.068-0.066,0.137-0.137,0.273
		l-0.135,0.273h-0.412l0.48-0.75l-0.41-0.752h0.41l0.137,0.272c0.066,0.068,0.066,0.138,0.135,0.273l0,0
		c0.07-0.068,0.07-0.136,0.137-0.273l0.137-0.272h0.412l-0.412,0.752l0.479,0.819h-0.545V51.801z"/>
	<path fill="#FFFFFF" d="M128.543,50.776v0.547h-1.502v-0.547H128.543z"/>
	<path fill="#FFFFFF" d="M133.396,52.075h-1.434v-1.437h1.434V52.075z M132.236,51.801h0.957v-0.957h-0.957V51.801z"/>
	<polygon fill="#FFFFFF" points="132.646,50.025 132.646,50.639 132.852,50.639 132.852,50.298 133.807,50.298 133.807,51.255 
		133.396,51.255 133.396,51.458 134.08,51.458 134.08,50.025 	"/>
	<rect x="33.007" y="55.081" fill="#5882B8" width="107.565" height="7.039"/>
	<rect x="33.007" y="62.189" fill="#FBFCFE" width="107.565" height="59.796"/>
	<rect x="53.441" y="56.79" fill="#EDF0F2" width="45.717" height="3.69"/>
	<circle fill="#BCBFC2" cx="47.974" cy="70.867" r="4.852"/>
	<path fill="#BCBFC2" d="M47.974,77.086c-5.398,0-9.772,4.854-9.772,10.866h19.544C57.746,81.939,53.373,77.086,47.974,77.086z"/>
	<rect x="62.529" y="64.785" fill="#BCBFC2" width="1.436" height="54.33"/>
	<rect x="70.867" y="68.407" fill="#39B39B" width="20.021" height="0.957"/>
	<rect x="70.867" y="74.08" fill="#BCBFC2" width="35.467" height="0.956"/>
	<rect x="70.867" y="79.821" fill="#BCBFC2" width="61.848" height="0.956"/>
	<rect x="70.867" y="85.561" fill="#BCBFC2" width="61.848" height="0.957"/>
	<rect x="70.867" y="91.233" fill="#BCBFC2" width="55.285" height="0.957"/>
	<rect x="70.867" y="96.975" fill="#BCBFC2" width="61.848" height="0.956"/>
	<rect x="70.867" y="102.646" fill="#BCBFC2" width="61.848" height="0.956"/>
</g>
</svg>
